<svg width="20" height="20" fill="none" xmlns="http://www.w3.org/2000/svg">
  <g clip-path="url(#a)">
    <path d="M3.168 0H17.32v20H3.168V0Z" fill="#fff"/>
    <path d="M-3.906 0h7.074v20h-7.074V0ZM17.32 0h7.075v20H17.32V0ZM5.285 9.664l-.547.188 2.555 2.246c.195.578-.066.746-.234 1.05l2.773-.351-.07 2.793.578-.02-.13-2.77 2.782.329c-.172-.363-.324-.555-.168-1.133l2.555-2.129-.445-.16c-.368-.285.156-1.36.234-2.039 0 0-1.488.512-1.586.242l-.387-.723-1.351 1.485c-.149.039-.211-.024-.246-.149l.625-3.113-.993.559c-.082.035-.164 0-.218-.094l-.957-1.914-.985 1.988c-.074.07-.148.078-.21.031l-.946-.53.566 3.093c-.043.117-.152.156-.277.09l-1.3-1.477c-.169.274-.286.719-.508.82-.223.09-.977-.19-1.48-.3.17.62.71 1.652.37 1.992v-.004Z" fill="#D52B1E"/>
  </g>
  <defs>
    <clipPath id="a">
      <path fill="#fff" d="M0 0h20v20H0z"/>
    </clipPath>
  </defs>
</svg>
