<svg width="21" height="20" viewBox="0 0 21 20" fill="none" xmlns="http://www.w3.org/2000/svg">
<path d="M5.68934 3.65583C5.68934 3.06071 5.89032 2.65805 6.32176 2.38871C6.73497 2.13071 7.34982 1.99998 8.14942 1.99998C9.84126 1.99998 10.3591 2.58553 10.5238 3.06203C8.80792 3.28885 7.49309 4.49171 7.49309 5.9412H7.49302C7.49302 6.07381 7.54569 6.20103 7.63944 6.29478C7.73326 6.38853 7.86041 6.4412 7.99303 6.4412H14.2232C14.3558 6.4412 14.483 6.38853 14.5768 6.29478C14.6705 6.20103 14.7232 6.07381 14.7232 5.9412C14.7232 4.4507 13.3334 3.21953 11.5464 3.04403C11.3547 2.13173 10.6191 1.00003 8.14936 1.00003C7.15965 1.00003 6.36653 1.18186 5.7922 1.54053C5.07071 1.99086 4.68933 2.72243 4.68933 3.65586V10.0225H5.68933L5.68934 3.65583Z" fill="#9499A8"/>
<path d="M12.5561 8.28139C12.6622 8.28139 12.7639 8.2392 12.8389 8.1642C12.9139 8.0892 12.9561 7.98745 12.9561 7.88138V7.34525C12.9561 7.20235 12.8799 7.07025 12.7561 6.99883C12.6324 6.92735 12.4799 6.92735 12.3561 6.99883C12.2324 7.07025 12.1561 7.20235 12.1561 7.34525V7.88138C12.1561 7.98744 12.1982 8.0892 12.2732 8.1642C12.3483 8.2392 12.45 8.28139 12.5561 8.28139H12.5561Z" fill="#9499A8"/>
<path d="M11.1079 8.28139C11.2139 8.28139 11.3157 8.2392 11.3907 8.1642C11.4657 8.0892 11.5079 7.98745 11.5079 7.88138V7.34525C11.5079 7.20235 11.4316 7.07025 11.3079 6.99883C11.1841 6.92735 11.0317 6.92735 10.9079 6.99883C10.7841 7.07025 10.7079 7.20235 10.7079 7.34525V7.88138C10.7079 7.98744 10.75 8.0892 10.825 8.1642C10.9001 8.2392 11.0018 8.28139 11.1079 8.28139H11.1079Z" fill="#9499A8"/>
<path d="M9.65964 8.28139C9.76576 8.28139 9.86746 8.2392 9.94252 8.1642C10.0175 8.0892 10.0596 7.98745 10.0596 7.88138V7.34525C10.0596 7.20235 9.98341 7.07025 9.85964 6.99883C9.73588 6.92735 9.58341 6.92735 9.45964 6.99883C9.33588 7.07025 9.25964 7.20235 9.25964 7.34525V7.88138C9.25964 7.98744 9.30183 8.0892 9.37683 8.1642C9.45183 8.2392 9.55358 8.28139 9.65965 8.28139H9.65964Z" fill="#9499A8"/>
<path d="M13.2798 10.0223C13.3858 10.0223 13.4876 9.98019 13.5626 9.90519C13.6376 9.83012 13.6798 9.72844 13.6798 9.6223V9.08617C13.6798 8.94327 13.6035 8.81124 13.4798 8.73975C13.356 8.66833 13.2035 8.66833 13.0798 8.73975C12.956 8.81124 12.8798 8.94327 12.8798 9.08617V9.6223C12.8798 9.72842 12.9219 9.83012 12.9969 9.90519C13.0719 9.98019 13.1736 10.0223 13.2798 10.0223H13.2798Z" fill="#9499A8"/>
<path d="M11.8315 10.0223C11.9376 10.0223 12.0393 9.98019 12.1143 9.90519C12.1893 9.83012 12.2315 9.72844 12.2315 9.6223V9.08617C12.2315 8.94327 12.1553 8.81124 12.0315 8.73975C11.9078 8.66833 11.7553 8.66833 11.6315 8.73975C11.5078 8.81124 11.4315 8.94327 11.4315 9.08617V9.6223C11.4315 9.72842 11.4736 9.83012 11.5486 9.90519C11.6237 9.98019 11.7254 10.0223 11.8315 10.0223H11.8315Z" fill="#9499A8"/>
<path d="M10.3842 10.0223C10.4903 10.0223 10.5921 9.98019 10.6671 9.90519C10.7421 9.83012 10.7843 9.72844 10.7843 9.6223V9.08617C10.7843 8.94327 10.708 8.81124 10.5843 8.73975C10.4605 8.66833 10.308 8.66833 10.1843 8.73975C10.0605 8.81124 9.98425 8.94327 9.98425 9.08617V9.6223C9.98425 9.72842 10.0264 9.83012 10.1014 9.90519C10.1764 9.98019 10.2781 10.0223 10.3843 10.0223H10.3842Z" fill="#9499A8"/>
<path d="M8.93602 8.68655C8.8299 8.68655 8.7282 8.72874 8.65313 8.80374C8.57813 8.87874 8.53601 8.98049 8.53601 9.08656V9.62269C8.53601 9.76559 8.61225 9.89769 8.73601 9.96911C8.85977 10.0406 9.01224 10.0406 9.13601 9.96911C9.25977 9.89769 9.33601 9.76559 9.33601 9.62269V9.08656C9.33601 8.9805 9.29382 8.87874 9.21882 8.80374C9.14382 8.72874 9.04207 8.68655 8.93601 8.68655H8.93602Z" fill="#9499A8"/>
<path d="M17.81 11.0727H3.18836C3.05574 11.0727 2.92859 11.1253 2.83484 11.2191C2.74102 11.3129 2.68835 11.44 2.68835 11.5727V13.3638C2.68933 14.2397 2.94239 15.0968 3.41732 15.8328C3.89232 16.5688 4.56902 17.1525 5.36682 17.5142L4.97385 18.2354H4.97379C4.90966 18.3474 4.88941 18.4791 4.91708 18.605C4.94469 18.731 5.01813 18.8422 5.1232 18.917C5.24 18.9943 5.38388 19.019 5.51975 18.9853C5.65569 18.9514 5.77118 18.8621 5.83817 18.7392L5.84722 18.7225H5.84728C5.98485 18.4759 6.18667 18.2712 6.43127 18.1301C6.67587 17.989 6.95412 17.9168 7.23642 17.9212H13.7524H13.7525C14.0363 17.9156 14.3163 17.9871 14.5626 18.1283C14.8089 18.2694 15.0122 18.4747 15.151 18.7224L15.1601 18.7392C15.2271 18.8622 15.3427 18.9515 15.4787 18.9853C15.6147 19.019 15.7586 18.9942 15.8754 18.9168C15.9803 18.8415 16.0536 18.73 16.0809 18.6038C16.1083 18.4776 16.0879 18.3458 16.0236 18.2338L15.6315 17.5142C16.4292 17.1525 17.1059 16.5687 17.5808 15.8328C18.0556 15.097 18.3089 14.2397 18.3098 13.3638V11.5727C18.3098 11.4401 18.2572 11.3129 18.1633 11.2192C18.0696 11.1253 17.9424 11.0727 17.8098 11.0727L17.81 11.0727Z" fill="#9499A8"/>
</svg>
