<svg width="21" height="20" fill="none" xmlns="http://www.w3.org/2000/svg">
  <path d="M5.69 3.656c0-.595.2-.998.632-1.267C6.735 2.13 7.35 2 8.149 2c1.692 0 2.21.586 2.375 1.062-1.716.227-3.03 1.43-3.03 2.88h-.001a.5.5 0 0 0 .5.5h6.23a.5.5 0 0 0 .5-.5c0-1.491-1.39-2.722-3.177-2.898C11.355 2.132 10.62 1 8.15 1c-.99 0-1.782.182-2.357.54-.721.45-1.103 1.182-1.103 2.116v6.367h1V3.656Z" fill="#9499A8"/>
  <path d="M12.556 8.281a.4.4 0 0 0 .4-.4v-.536a.4.4 0 1 0-.8 0v.536a.4.4 0 0 0 .4.4ZM11.108 8.281a.4.4 0 0 0 .4-.4v-.536a.4.4 0 0 0-.8 0v.536a.4.4 0 0 0 .4.4ZM9.66 8.281a.4.4 0 0 0 .4-.4v-.536a.4.4 0 1 0-.8 0v.536a.4.4 0 0 0 .4.4ZM13.28 10.022a.4.4 0 0 0 .4-.4v-.536a.4.4 0 0 0-.8 0v.536a.4.4 0 0 0 .4.4ZM11.832 10.022a.4.4 0 0 0 .4-.4v-.536a.4.4 0 1 0-.8 0v.536a.4.4 0 0 0 .4.4ZM10.384 10.022a.4.4 0 0 0 .4-.4v-.536a.4.4 0 0 0-.8 0v.536a.4.4 0 0 0 .4.4ZM8.936 8.687a.4.4 0 0 0-.4.4v.536a.4.4 0 1 0 .8 0v-.536a.4.4 0 0 0-.4-.4ZM17.81 11.073H3.188a.5.5 0 0 0-.5.5v1.79a4.563 4.563 0 0 0 2.679 4.151l-.393.721a.52.52 0 0 0 .15.682.5.5 0 0 0 .714-.178l.01-.017a1.563 1.563 0 0 1 1.388-.8h6.516a1.567 1.567 0 0 1 1.399.8l.01.017a.5.5 0 0 0 .714.178.521.521 0 0 0 .149-.683l-.393-.72a4.563 4.563 0 0 0 2.679-4.15v-1.791a.5.5 0 0 0-.5-.5Z" fill="#9499A8"/>
</svg>
