<svg width="21" height="20" fill="none" xmlns="http://www.w3.org/2000/svg">
  <g clip-path="url(#a)">
    <path d="M20.192 11.627a.4.4 0 0 0-.085-.251l-3.143-3.93V3.523c0-.445-.36-.809-.809-.809H4.843c-.445 0-.809.36-.809.81v3.924L.892 11.376a.406.406 0 0 0-.085.251H.804v5.655h1.212l.81-.81h15.35l.81.813h1.212v-5.658h-.006ZM11.107 5.14c0-.224.182-.403.403-.403h3.233c.224 0 .403.182.403.404v1.615a.403.403 0 0 1-.403.403H11.51a.403.403 0 0 1-.403-.403V5.139Zm-5.252 0c0-.224.182-.403.403-.403h3.234c.224 0 .403.182.403.403v1.616a.403.403 0 0 1-.403.403H6.258a.403.403 0 0 1-.403-.403V5.139Zm-1.22 2.852h11.73l2.584 3.233H2.05l2.585-3.233Z" fill="#9499A8"/>
  </g>
  <defs>
    <clipPath id="a">
      <path fill="#fff" d="M.5 0h20v20H.5z"/>
    </clipPath>
  </defs>
</svg>
